<svg xmlns="http://www.w3.org/2000/svg" version="1.1" xmlns:xlink="http://www.w3.org/1999/xlink" width="562" height="591"><svg width="562" height="591" viewBox="0 0 562 591" fill="none" xmlns="http://www.w3.org/2000/svg">
<path fill-rule="evenodd" clip-rule="evenodd" d="M164.653 253.865L164.652 253.874C160.461 288.464 164.014 318.932 176.344 344.554C188.414 369.637 206.2 389.014 229.628 402.259C252.763 415.34 278.668 421.765 307.036 421.765C327.392 421.765 347.478 418.073 367.234 410.769L367.3 410.744C387.256 403.239 405.653 392.495 422.459 378.578L422.493 378.549L422.527 378.521C439.523 364.243 453.673 346.867 465.003 326.523C476.71 305.845 484.094 282.592 487.313 256.943L487.319 256.894C491.134 225.493 488.101 196.883 477.651 171.46C467.379 146.007 450.683 125.867 427.738 111.39C404.628 96.6165 376.909 89.5664 345.22 89.5664C327.152 89.5664 308.431 92.8771 289.123 99.2884C269.476 105.812 250.963 115.769 233.598 129.044C215.89 142.581 200.9 159.708 188.575 180.237C175.93 201.301 168.056 225.946 164.653 253.865ZM346.968 332.314L346.929 332.344L346.89 332.374C337.67 339.601 326.766 343.33 313.59 343.33C295.953 343.33 283.85 336.289 275.502 321.616C266.783 305.954 263.359 284.77 266.759 256.93C269.076 238.664 273.748 222.781 280.598 209.117C287.647 195.432 296.121 185.376 305.802 178.42L305.832 178.398C315.429 171.46 326.145 168.002 338.381 168.002C350.399 168.002 359.486 171.421 366.579 177.655L366.632 177.701L366.685 177.747C374.008 184.041 379.617 193.296 382.928 206.489C386.264 219.781 386.968 235.477 384.645 253.806L384.635 253.885L384.626 253.964C382.679 271.072 378.369 286.564 371.79 300.541C365.311 314.118 356.991 324.584 346.968 332.314Z" fill="black"></path>
<path d="M46.5693 105.136L143.643 150.642C123.985 187.74 107.683 225.756 107.683 271.332C107.683 388.406 202.589 483.313 319.663 483.313C387.175 483.313 447.315 451.753 486.136 402.581L561.204 480.726C502.593 548.276 416.117 590.996 319.663 590.996C143.118 590.996 0.00011964 447.877 0 271.332C5.77993e-05 205.48 23.1471 152.881 47.9551 102.1H47.9922L46.5693 105.136ZM143.641 150.637L46.5732 105.133L105.383 0.00585938L223.802 0L143.641 150.637Z" fill="black"></path>
</svg><style>@media (prefers-color-scheme: light) { :root { filter: none; } }
@media (prefers-color-scheme: dark) { :root { filter: none; } }
</style></svg>