<svg width="33" height="33" viewBox="0 0 33 33" fill="none" xmlns="http://www.w3.org/2000/svg">
<path fill-rule="evenodd" clip-rule="evenodd" d="M10.9153 14.2435L10.9152 14.244C10.6883 16.1169 10.8807 17.7666 11.5483 19.1539C12.2019 20.5121 13.1649 21.5613 14.4334 22.2785C15.6861 22.9867 17.0888 23.3346 18.6248 23.3346C19.727 23.3346 20.8146 23.1347 21.8842 22.7392L21.8878 22.7379C22.9684 22.3315 23.9645 21.7498 24.8745 20.9962L24.8763 20.9947L24.8782 20.9931C25.7984 20.22 26.5645 19.2792 27.178 18.1776C27.8119 17.058 28.2117 15.7989 28.386 14.4102L28.3863 14.4075C28.5929 12.7073 28.4287 11.1581 27.8629 9.78161C27.3067 8.40345 26.4026 7.31295 25.1603 6.52905C23.909 5.72914 22.4081 5.34741 20.6923 5.34741C19.714 5.34741 18.7003 5.52667 17.6548 5.87382C16.591 6.22705 15.5886 6.76618 14.6484 7.48496C13.6896 8.21795 12.878 9.14531 12.2106 10.2569C11.5259 11.3974 11.0996 12.7318 10.9153 14.2435ZM20.7869 18.4912L20.7848 18.4928L20.7827 18.4945C20.2835 18.8858 19.6931 19.0877 18.9796 19.0877C18.0246 19.0877 17.3693 18.7064 16.9173 17.9119C16.4452 17.0639 16.2598 15.9169 16.4439 14.4095C16.5694 13.4204 16.8223 12.5605 17.1932 11.8206C17.5749 11.0796 18.0338 10.5351 18.558 10.1585L18.5596 10.1573C19.0792 9.78162 19.6595 9.59438 20.322 9.59438C20.9727 9.59438 21.4647 9.77951 21.8488 10.1171L21.8516 10.1196L21.8545 10.122C22.251 10.4628 22.5547 10.964 22.734 11.6783C22.9146 12.398 22.9527 13.2479 22.827 14.2403L22.8265 14.2446L22.826 14.2489C22.7205 15.1752 22.4871 16.0141 22.1309 16.7708C21.7801 17.5059 21.3296 18.0726 20.7869 18.4912Z" fill="white"/>
<path fill-rule="evenodd" clip-rule="evenodd" d="M14.118 0.497803L7.70605 0.498137L4.52175 6.19034L9.77755 8.65417L14.118 0.497803ZM4.59639 6.02607H4.59862L4.52156 6.19044L9.77766 8.65441C8.71325 10.6631 7.83056 12.7216 7.83056 15.1893C7.83056 21.5284 12.9694 26.6672 19.3085 26.6672C22.9639 26.6672 26.2203 24.9584 28.3223 22.2959L32.3869 26.5271C29.2134 30.1847 24.531 32.4978 19.3085 32.4978C9.74926 32.4978 2 24.7485 2 15.1893C2 11.6237 3.25315 8.77565 4.59639 6.02607Z" fill="white"/>
</svg>
