<svg width="1507" height="1641" viewBox="0 0 1507 1641" fill="none" xmlns="http://www.w3.org/2000/svg">
<path fill-rule="evenodd" clip-rule="evenodd" d="M612.87 265.445L612.869 265.454C608.487 301.622 612.203 333.48 625.094 360.27C637.715 386.498 656.312 406.758 680.808 420.607C704.999 434.284 732.086 441.003 761.747 441.003C783.032 441.003 804.034 437.142 824.691 429.505L824.76 429.479C845.627 421.632 864.862 410.398 882.435 395.846L882.471 395.816L882.507 395.786C900.277 380.857 915.072 362.688 926.919 341.416C939.161 319.795 946.881 295.482 950.247 268.663L950.253 268.612C954.242 235.778 951.071 205.863 940.144 179.281C929.404 152.667 911.946 131.609 887.955 116.471C863.791 101.024 834.808 93.6523 801.673 93.6523C782.781 93.6523 763.206 97.1141 743.017 103.818C722.474 110.639 703.117 121.05 684.96 134.93C666.444 149.085 650.771 166.994 637.884 188.459C624.661 210.483 616.429 236.252 612.87 265.445ZM803.501 347.472L803.46 347.503L803.419 347.535C793.779 355.092 782.377 358.99 768.6 358.99C750.159 358.99 737.504 351.628 728.775 336.285C719.658 319.91 716.078 297.76 719.634 268.65C722.056 249.55 726.941 232.943 734.103 218.655C741.474 204.347 750.335 193.832 760.457 186.559L760.489 186.536C770.523 179.281 781.729 175.666 794.522 175.666C807.088 175.666 816.59 179.241 824.007 185.759L824.061 185.807L824.117 185.855C831.774 192.436 837.639 202.113 841.101 215.908C844.589 229.806 845.325 246.218 842.897 265.383L842.886 265.466L842.877 265.548C840.84 283.437 836.334 299.636 829.455 314.249C822.681 328.445 813.981 339.389 803.501 347.472Z" fill="white"/>
<path d="M590.896 157.508L489.403 109.93L489.401 109.935L590.9 157.516C570.346 196.305 553.301 236.055 553.301 283.709C553.301 406.122 652.537 505.359 774.95 505.359C845.541 505.359 908.425 472.358 949.017 420.944L1027.51 502.653C966.224 573.285 875.803 617.953 774.95 617.953C590.353 617.953 440.707 468.306 440.707 283.709C440.707 214.855 464.908 159.858 490.847 106.763H490.889L489.418 109.897L550.893 0.00683594L674.713 0L590.896 157.508Z" fill="white"/>
<path d="M468.996 1277.09V856.125H548.904L726.67 1139.28L734.777 1162.44L733.618 1139.28V856.125H806.578V1277.09H733.618L547.746 982.356L538.481 961.511L539.639 981.198V1277.09H468.996Z" fill="white"/>
<path d="M308.217 1277.08V1049.19C308.217 1004.73 344.252 968.699 388.704 968.699V968.699V1277.08H308.217Z" fill="white"/>
<path d="M0 1277.09L0 856.125H83.3821L83.3821 1216.87H235.091V1277.09H0Z" fill="white"/>
<ellipse cx="348.453" cy="889.114" rx="46.1485" ry="47.6024" fill="white"/>
<path d="M1296.39 1285.18C1251.8 1285.18 1213.88 1275.62 1182.61 1256.52C1151.53 1237.21 1127.79 1211.06 1111.38 1178.06C1094.98 1145.05 1086.78 1107.8 1086.78 1066.3C1086.78 1036 1091.41 1007.62 1100.67 981.181C1110.13 954.738 1123.83 931.48 1141.78 911.406C1159.73 891.333 1181.64 875.698 1207.51 864.504C1233.56 853.116 1263.19 847.422 1296.39 847.422C1334.22 847.422 1366.36 853.888 1392.8 866.82C1419.44 879.752 1441.05 896.93 1457.65 918.355C1474.25 939.779 1486.31 963.423 1493.84 989.287C1501.56 1014.96 1505.42 1040.63 1505.42 1066.3C1505.42 1094.67 1500.79 1121.98 1491.53 1148.23C1482.45 1174.29 1469.04 1197.65 1451.28 1218.3C1433.53 1238.95 1411.62 1255.26 1385.56 1267.23C1359.7 1279.19 1329.97 1285.18 1296.39 1285.18ZM1296.39 1225.54C1317.62 1225.54 1337.5 1219.36 1356.03 1207.01C1374.56 1194.46 1389.52 1176.32 1400.91 1152.58C1412.29 1128.84 1417.99 1100.08 1417.99 1066.3C1417.99 1036 1413.16 1008.88 1403.51 984.944C1393.86 960.818 1379.96 941.806 1361.82 927.909C1343.68 914.012 1321.87 907.063 1296.39 907.063C1269.75 907.063 1247.36 914.398 1229.22 929.067C1211.27 943.736 1197.66 963.134 1188.4 987.261C1179.33 1011.39 1174.79 1037.73 1174.79 1066.3C1174.79 1086.18 1177.4 1105.67 1182.61 1124.78C1187.82 1143.7 1195.44 1160.78 1205.48 1176.03C1215.71 1191.08 1228.45 1203.15 1243.7 1212.22C1258.94 1221.1 1276.51 1225.54 1296.39 1225.54Z" fill="white"/>
<path d="M991.821 1277.09L896.858 1090.64L892.805 1076.74L885.857 1089.48L849.377 1136.38C844.938 1119.2 843.586 1101.64 845.324 1083.69C847.061 1065.74 851.018 1048.66 857.194 1032.44C863.37 1016.04 870.994 1001.66 880.066 989.305L975.608 856.125H1066.52L936.812 1024.63L1086.78 1277.09H991.821ZM733.568 1277.09V856.125H816.371V1277.09H733.568Z" fill="white"/>
<path d="M888.009 1570H828.644V1355.95H892.607C912.674 1355.95 929.85 1360.2 944.134 1368.7C958.417 1377.2 969.357 1389.4 976.951 1405.28C984.616 1421.1 988.413 1440.09 988.344 1462.24C988.274 1484.89 984.302 1504.26 976.429 1520.36C968.555 1536.38 957.163 1548.68 942.252 1557.25C927.341 1565.75 909.26 1570 888.009 1570ZM841.708 1557.88H887.486C906.578 1557.88 922.673 1554.08 935.772 1546.48C948.872 1538.82 958.766 1527.85 965.455 1513.56C972.213 1499.28 975.558 1482.17 975.488 1462.24C975.488 1442.6 972.248 1425.77 965.768 1411.76C959.288 1397.69 949.847 1386.89 937.445 1379.36C925.112 1371.84 909.992 1368.08 892.085 1368.08H841.708V1557.88ZM1011.91 1570V1409.46H1024.56V1570H1011.91ZM1018.28 1381.04C1015.5 1381.04 1013.06 1380.06 1010.97 1378.11C1008.95 1376.16 1007.94 1373.79 1007.94 1371C1007.94 1368.21 1008.95 1365.85 1010.97 1363.89C1012.99 1361.94 1015.43 1360.97 1018.28 1360.97C1021.07 1360.97 1023.48 1361.94 1025.5 1363.89C1027.59 1365.85 1028.63 1368.21 1028.63 1371C1028.63 1373.79 1027.62 1376.16 1025.6 1378.11C1023.58 1380.06 1021.14 1381.04 1018.28 1381.04ZM1112.32 1633.55C1102.36 1633.55 1093.4 1632.22 1085.46 1629.57C1077.52 1627 1070.76 1623.3 1065.18 1618.5C1059.68 1613.69 1055.46 1607.97 1052.54 1601.35L1063.2 1595.08C1065.57 1600.24 1068.95 1604.84 1073.33 1608.88C1077.72 1612.92 1083.16 1616.09 1089.64 1618.39C1096.19 1620.69 1103.75 1621.84 1112.32 1621.84C1127.79 1621.84 1140.02 1617.83 1149 1609.82C1158.06 1601.88 1162.59 1589.68 1162.59 1573.24V1533.31H1161.34C1158.9 1540.28 1155.28 1546.48 1150.47 1551.92C1145.73 1557.28 1139.91 1561.5 1133.01 1564.57C1126.12 1567.63 1118.28 1569.16 1109.5 1569.16C1096.82 1569.16 1085.67 1565.89 1076.05 1559.34C1066.44 1552.79 1058.95 1543.59 1053.58 1531.75C1048.22 1519.83 1045.53 1505.83 1045.53 1489.73C1045.53 1473.64 1048.15 1459.39 1053.37 1446.98C1058.67 1434.51 1066.12 1424.76 1075.74 1417.72C1085.35 1410.61 1096.64 1407.06 1109.6 1407.06C1118.87 1407.06 1126.88 1408.84 1133.64 1412.39C1140.47 1415.87 1146.18 1420.51 1150.78 1426.29C1155.38 1432.07 1158.93 1438.41 1161.44 1445.31H1162.9V1409.46H1175.24V1573.76C1175.24 1587.14 1172.59 1598.25 1167.29 1607.1C1162.07 1615.95 1154.72 1622.57 1145.24 1626.96C1135.84 1631.35 1124.86 1633.55 1112.32 1633.55ZM1110.65 1557.35C1121.38 1557.35 1130.61 1554.64 1138.34 1549.2C1146.15 1543.7 1152.14 1535.89 1156.32 1525.79C1160.57 1515.62 1162.7 1503.56 1162.7 1489.63C1162.7 1476.11 1160.64 1464.02 1156.53 1453.36C1152.42 1442.7 1146.46 1434.3 1138.66 1428.17C1130.85 1422.04 1121.52 1418.97 1110.65 1418.97C1099.57 1418.97 1090.13 1422.11 1082.32 1428.38C1074.52 1434.58 1068.53 1443.01 1064.35 1453.67C1060.24 1464.33 1058.18 1476.32 1058.18 1489.63C1058.18 1503.01 1060.27 1514.78 1064.45 1524.95C1068.63 1535.06 1074.62 1543 1082.43 1548.78C1090.23 1554.5 1099.64 1557.35 1110.65 1557.35ZM1205.96 1570V1409.46H1218.61V1570H1205.96ZM1212.34 1381.04C1209.55 1381.04 1207.11 1380.06 1205.02 1378.11C1203 1376.16 1201.99 1373.79 1201.99 1371C1201.99 1368.21 1203 1365.85 1205.02 1363.89C1207.04 1361.94 1209.48 1360.97 1212.34 1360.97C1215.12 1360.97 1217.53 1361.94 1219.55 1363.89C1221.64 1365.85 1222.68 1368.21 1222.68 1371C1222.68 1373.79 1221.67 1376.16 1219.65 1378.11C1217.63 1380.06 1215.19 1381.04 1212.34 1381.04ZM1305.22 1409.46V1420.86H1235.09V1409.46H1305.22ZM1258.82 1371H1271.46V1532.06C1271.46 1538.61 1272.72 1543.98 1275.23 1548.16C1277.8 1552.27 1281.15 1555.33 1285.26 1557.35C1289.44 1559.3 1293.9 1560.28 1298.64 1560.28C1300.94 1560.28 1302.92 1560.11 1304.6 1559.76C1306.34 1559.41 1307.98 1558.96 1309.51 1558.4L1312.64 1570C1310.69 1570.7 1308.53 1571.29 1306.16 1571.78C1303.79 1572.33 1301.01 1572.61 1297.8 1572.61C1291.11 1572.61 1284.77 1571.11 1278.78 1568.12C1272.86 1565.12 1268.05 1560.77 1264.36 1555.05C1260.66 1549.34 1258.82 1542.44 1258.82 1534.36V1371ZM1371.51 1573.45C1362.24 1573.45 1353.74 1571.6 1346.01 1567.91C1338.34 1564.22 1332.18 1558.82 1327.51 1551.71C1322.91 1544.6 1320.61 1535.96 1320.61 1525.79C1320.61 1519.1 1321.79 1513.21 1324.16 1508.13C1326.53 1503.04 1330.19 1498.65 1335.14 1494.96C1340.08 1491.26 1346.43 1488.23 1354.16 1485.86C1361.89 1483.43 1371.13 1481.54 1381.86 1480.22C1390.01 1479.25 1397.29 1478.3 1403.7 1477.4C1410.11 1476.42 1415.13 1474.93 1418.75 1472.9C1422.44 1470.88 1424.29 1467.82 1424.29 1463.71V1457.02C1424.29 1445.31 1420.6 1436.01 1413.21 1429.11C1405.82 1422.21 1395.65 1418.77 1382.69 1418.77C1371.2 1418.77 1361.51 1421.31 1353.64 1426.4C1345.83 1431.41 1340.36 1437.89 1337.23 1445.84L1325.21 1441.34C1328.27 1433.68 1332.7 1427.3 1338.48 1422.21C1344.33 1417.13 1351.02 1413.33 1358.55 1410.82C1366.14 1408.31 1374.09 1407.06 1382.38 1407.06C1389.56 1407.06 1396.38 1408.07 1402.86 1410.09C1409.41 1412.11 1415.23 1415.18 1420.32 1419.29C1425.47 1423.4 1429.55 1428.66 1432.55 1435.07C1435.54 1441.41 1437.04 1449.01 1437.04 1457.85V1570H1424.29V1541.05H1423.35C1420.56 1547.04 1416.73 1552.51 1411.85 1557.46C1407.04 1562.34 1401.23 1566.24 1394.4 1569.16C1387.64 1572.02 1380.01 1573.45 1371.51 1573.45ZM1372.76 1561.64C1382.8 1561.64 1391.68 1559.2 1399.41 1554.32C1407.22 1549.38 1413.32 1542.62 1417.7 1534.05C1422.09 1525.48 1424.29 1515.76 1424.29 1504.89V1481.27C1422.69 1482.66 1420.35 1483.91 1417.29 1485.03C1414.29 1486.07 1410.88 1487.01 1407.04 1487.85C1403.28 1488.62 1399.31 1489.31 1395.13 1489.94C1391.02 1490.5 1387.01 1491.02 1383.11 1491.51C1371.4 1492.9 1361.86 1495.06 1354.47 1497.99C1347.16 1500.85 1341.79 1504.61 1338.38 1509.28C1335.03 1513.94 1333.36 1519.59 1333.36 1526.21C1333.36 1537.15 1337.12 1545.79 1344.65 1552.13C1352.17 1558.47 1361.54 1561.64 1372.76 1561.64ZM1479.71 1355.95V1570H1466.95V1355.95H1479.71Z" fill="white"/>
</svg>
